<?xml version="1.0" encoding="UTF-8" standalone="no"?>
<svg
   id="svg198"
   version="1.1"
   fill="none"
   viewBox="0 0 1199.9999 999.99992"
   height="1000"
   width="1200"
   xmlns:xlink="http://www.w3.org/1999/xlink"
   xmlns="http://www.w3.org/2000/svg"
   xmlns:svg="http://www.w3.org/2000/svg">
  <defs
     id="defs196">
    <linearGradient
       id="linearGradient635">
      <stop
         style="stop-color:#ffffff;stop-opacity:1;"
         offset="0"
         id="stop631" />
      <stop
         style="stop-color:#ffffff;stop-opacity:0;"
         offset="1"
         id="stop633" />
    </linearGradient>
    <mask
       maskUnits="userSpaceOnUse"
       id="mask903">
      <rect
         style="fill:url(#linearGradient907);fill-opacity:1;stroke:#66c2a5;stroke-width:2;stroke-linecap:round;stroke-linejoin:round;paint-order:stroke fill markers;stop-color:#000000"
         id="rect905"
         width="1196.298"
         height="997.56439"
         x="-427.65677"
         y="418.17859"
         transform="rotate(-27)" />
    </mask>
    <linearGradient
       xlink:href="#linearGradient635"
       id="linearGradient907"
       gradientUnits="userSpaceOnUse"
       x1="639.0647"
       y1="15.586944"
       x2="631.27124"
       y2="985.87421"
       gradientTransform="translate(-431.55352,414.28185)" />
  </defs>
  <g
     id="g25853"
     transform="translate(-130)">
    <path
       style="fill:#ffffff;fill-opacity:1;stroke-width:0.902433"
       d="m -457.31863,975.40309 c 0.01,1.4978 1.26138,2.643 2.81203,2.5557 1.55373,-0.083 2.80334,-1.3555 2.79357,-2.8542 -0.01,-1.4515 -1.18247,-2.566 -2.77266,-2.5166 -1.59019,0.05 -2.84268,1.3165 -2.83294,2.8151 z"
       id="path15778" />
    <path
       style="fill:#ffffff;fill-opacity:1;stroke-width:5.89419"
       d="m -472.82215,46.11195 c 0.0653,9.78279 8.23863,17.2626 18.3666,16.6924 10.1481,-0.54211 18.30985,-8.85336 18.24604,-18.64203 -0.0653,-9.48039 -7.72323,-16.75968 -18.10946,-16.43702 -10.38623,0.32657 -18.5668,8.59864 -18.50318,18.38665 z"
       id="path15780" />
    <path
       d="m -472.32169,76.08939 c 0.063,9.515 8.013,16.791 17.864,16.236 h 0.001 c 9.87,-0.527 17.809,-8.611 17.747,-18.133 v -0.001 c -0.064,-9.22 -7.512,-16.3 -17.615,-15.987 v 0 c -10.102,0.318 -18.059,8.364 -17.997,17.885 z"
       style="fill:#ffffff;fill-opacity:1;stroke-width:5.89419"
       id="path15782" />
    <path
       d="m -471.82169,106.06639 c 0.061,9.248 7.788,16.319 17.363,15.78 v 0 c 9.593,-0.512 17.309,-8.369 17.249,-17.623 v -10e-4 c -0.062,-8.962 -7.302,-15.843 -17.12,-15.538 v 0 c -9.819,0.309 -17.552,8.129 -17.492,17.382 z"
       style="fill:#ffffff;fill-opacity:1;stroke-width:5.89419"
       id="path15784" />
    <path
       d="m -471.32169,136.04339 c 0.06,8.981 7.563,15.848 16.861,15.324 v 0 c 9.317,-0.497 16.809,-8.127 16.751,-17.114 v -0.001 c -0.061,-8.703 -7.091,-15.385 -16.625,-15.089 v 0 c -9.535,0.3 -17.046,7.894 -16.987,16.88 z"
       style="fill:#ffffff;fill-opacity:1;stroke-width:5.89419"
       id="path15786" />
    <path
       d="m -470.82169,166.02039 c 0.058,8.714 7.338,15.376 16.36,14.868 v 0 c 9.039,-0.483 16.309,-7.886 16.252,-16.604 v -0.001 c -0.059,-8.444 -6.88,-14.928 -16.131,-14.64 v 0 c -9.251,0.291 -16.538,7.659 -16.481,16.377 z"
       style="fill:#ffffff;fill-opacity:1;stroke-width:5.89419"
       id="path15788" />
    <path
       d="m -470.32169,195.99739 c 0.056,8.447 7.113,14.905 15.858,14.413 v 0 c 8.762,-0.469 15.809,-7.645 15.754,-16.096 v -0.001 c -0.057,-8.185 -6.669,-14.469 -15.636,-14.191 v 0 c -8.968,0.282 -16.031,7.424 -15.976,15.875 z"
       style="fill:#ffffff;fill-opacity:1;stroke-width:5.89419"
       id="path15790" />
    <path
       d="m -469.82169,225.97439 c 0.055,8.18 6.888,14.433 15.356,13.957 v 0 c 8.485,-0.454 15.309,-7.403 15.255,-15.587 v 0 c -0.054,-7.926 -6.457,-14.012 -15.141,-13.742 v 0 c -8.683,0.273 -15.523,7.189 -15.47,15.372 z"
       style="fill:#ffffff;fill-opacity:1;stroke-width:5.89419"
       id="path15792" />
    <path
       d="m -469.32169,255.95139 c 0.053,7.912 6.663,13.962 14.855,13.501 v 0 c 8.207,-0.439 14.808,-7.161 14.756,-15.077 v -0.001 c -0.053,-7.667 -6.246,-13.554 -14.646,-13.293 v 0 c -8.4,0.264 -15.016,6.954 -14.965,14.87 z"
       style="fill:#ffffff;fill-opacity:1;stroke-width:5.89419"
       id="path15794" />
    <path
       d="m -468.82169,285.92939 c 0.051,7.644 6.438,13.489 14.353,13.044 v 0 c 7.93,-0.424 14.308,-6.919 14.258,-14.568 v -0.001 c -0.051,-7.408 -6.035,-13.096 -14.151,-12.844 v 0 c -8.117,0.256 -14.509,6.72 -14.46,14.369 z"
       style="fill:#ffffff;fill-opacity:1;stroke-width:5.89419"
       id="path15796" />
    <path
       d="m -468.32069,315.90639 c 0.049,7.377 6.213,13.018 13.85,12.588 v 0 c 7.653,-0.409 13.808,-6.677 13.76,-14.059 v 0 c -0.049,-7.149 -5.824,-12.638 -13.657,-12.395 v 0 c -7.832,0.246 -14.001,6.484 -13.953,13.866 z"
       style="fill:#ffffff;fill-opacity:1;stroke-width:5.89419"
       id="path15798" />
    <path
       d="m -467.82069,345.88339 c 0.047,7.11 5.988,12.546 13.349,12.132 v 0 c 7.375,-0.394 13.307,-6.435 13.261,-13.549 v -10e-4 c -0.048,-6.89 -5.613,-12.18 -13.162,-11.946 v 0 c -7.549,0.238 -13.495,6.25 -13.448,13.364 z"
       style="fill:#ffffff;fill-opacity:1;stroke-width:5.89419"
       id="path15800" />
    <path
       d="m -467.32069,375.86039 c 0.045,6.843 5.763,12.075 12.847,11.676 v 0 c 7.099,-0.379 12.808,-6.193 12.763,-13.04 v 0 c -0.046,-6.631 -5.403,-11.723 -12.667,-11.497 h -0.001 c -7.265,0.228 -12.987,6.014 -12.942,12.861 z"
       style="fill:#ffffff;fill-opacity:1;stroke-width:5.89419"
       id="path15802" />
    <path
       d="m -466.82069,405.83739 c 0.044,6.576 5.538,11.604 12.345,11.22 h 10e-4 c 6.821,-0.364 12.307,-5.951 12.264,-12.53 v -0.001 c -0.044,-6.372 -5.192,-11.265 -12.173,-11.048 v 0 c -6.981,0.22 -12.48,5.78 -12.437,12.359 z"
       style="fill:#ffffff;fill-opacity:1;stroke-width:5.89419"
       id="path15804" />
    <path
       d="m -466.32069,435.81439 c 0.042,6.309 5.313,11.132 11.844,10.764 v 0 c 6.544,-0.349 11.807,-5.709 11.766,-12.021 v 0 c -0.043,-6.114 -4.981,-10.807 -11.678,-10.599 v 0 c -6.698,0.21 -11.973,5.545 -11.932,11.856 z"
       style="fill:#ffffff;fill-opacity:1;stroke-width:5.89419"
       id="path15806" />
    <path
       d="m -465.82069,465.79139 c 0.04,6.042 5.088,10.665 11.342,10.305 v 0 c 6.267,-0.33 11.307,-5.464 11.268,-11.509 v 0 c -0.041,-5.854 -4.77,-10.349 -11.184,-10.15 v 0 c -6.414,0.202 -11.465,5.31 -11.426,11.354 z"
       style="fill:#ffffff;fill-opacity:1;stroke-width:5.89419"
       id="path15808" />
    <path
       d="m -465.32069,495.76639 c 0.039,5.78 4.863,10.19 10.84,9.85 h 10e-4 c 5.989,-0.32 10.806,-5.22 10.768,-11 v 0 c -0.038,-5.59 -4.558,-9.89 -10.688,-9.7 v 0 c -6.13,0.19 -10.958,5.08 -10.921,10.85 z"
       style="fill:#ffffff;fill-opacity:1;stroke-width:5.89419"
       id="path15810" />
    <path
       d="m -464.82069,525.74639 c 0.037,5.51 4.638,9.72 10.339,9.4 v 0 c 5.712,-0.31 10.306,-4.99 10.27,-10.5 v 0 c -0.037,-5.33 -4.347,-9.43 -10.193,-9.25 h -10e-4 c -5.846,0.18 -10.45,4.84 -10.415,10.35 z"
       style="fill:#ffffff;fill-opacity:1;stroke-width:5.89419"
       id="path15812" />
    <path
       d="m -464.32069,555.72639 c 0.035,5.24 4.413,9.24 9.837,8.94 v 0 c 5.435,-0.29 9.806,-4.74 9.772,-9.99 v 0 c -0.035,-5.07 -4.136,-8.97 -9.699,-8.8 v 0 c -5.562,0.17 -9.944,4.6 -9.91,9.85 z"
       style="fill:#ffffff;fill-opacity:1;stroke-width:5.89419"
       id="path15814" />
    <path
       d="m -463.81969,585.69639 c 0.033,4.98 4.187,8.78 9.334,8.49 h 10e-4 c 5.157,-0.28 9.306,-4.5 9.273,-9.48 v 0 c -0.033,-4.82 -3.925,-8.52 -9.204,-8.35 v 0 c -5.279,0.17 -9.437,4.37 -9.404,9.34 z"
       style="fill:#ffffff;fill-opacity:1;stroke-width:5.89419"
       id="path15816" />
    <path
       d="m -463.31969,615.67639 c 0.031,4.71 3.962,8.3 8.833,8.03 v 0 c 4.881,-0.26 8.806,-4.26 8.775,-8.97 v 0 c -0.032,-4.56 -3.714,-8.06 -8.709,-7.9 h -0.001 c -4.995,0.16 -8.929,4.13 -8.898,8.84 z"
       style="fill:#ffffff;fill-opacity:1;stroke-width:5.89419"
       id="path15818" />
    <path
       d="m -462.81969,645.65639 c 0.029,4.44 3.737,7.83 8.331,7.57 h 0.001 c 4.603,-0.25 8.305,-4.02 8.276,-8.46 v 0 c -0.03,-4.3 -3.504,-7.6 -8.215,-7.45 v 0 c -4.711,0.15 -8.422,3.9 -8.393,8.34 z"
       style="fill:#ffffff;fill-opacity:1;stroke-width:5.89419"
       id="path15820" />
    <path
       d="m -462.31969,675.63639 c 0.028,4.17 3.512,7.35 7.83,7.11 v 0 c 4.326,-0.23 7.805,-3.77 7.778,-7.95 v 0 c -0.028,-4.04 -3.293,-7.14 -7.72,-7 h -10e-4 c -4.427,0.14 -7.914,3.66 -7.887,7.84 z"
       style="fill:#ffffff;fill-opacity:1;stroke-width:5.89419"
       id="path15822" />
    <path
       d="m -461.81969,705.60639 c 0.026,3.91 3.287,6.89 7.328,6.66 v 0 c 4.049,-0.21 7.305,-3.53 7.28,-7.44 v 0 c -0.027,-3.78 -3.082,-6.68 -7.226,-6.55 v 0 c -4.144,0.13 -7.407,3.43 -7.382,7.33 z"
       style="fill:#ffffff;fill-opacity:1;stroke-width:5.89419"
       id="path15824" />
    <path
       d="m -461.31969,735.58639 c 0.024,3.64 3.062,6.42 6.826,6.2 h 0.001 c 3.771,-0.2 6.804,-3.29 6.781,-6.92 v -0.01 c -0.025,-3.52 -2.871,-6.22 -6.731,-6.1 v 0 c -3.86,0.12 -6.9,3.19 -6.877,6.83 z"
       style="fill:#ffffff;fill-opacity:1;stroke-width:5.89419"
       id="path15826" />
    <path
       d="m -460.81969,765.56639 c 0.023,3.37 2.837,5.94 6.325,5.74 v 0 c 3.494,-0.18 6.304,-3.04 6.282,-6.41 v 0 c -0.022,-3.27 -2.659,-5.78 -6.235,-5.66 h -10e-4 c -3.576,0.11 -6.393,2.96 -6.371,6.33 z"
       style="fill:#ffffff;fill-opacity:1;stroke-width:5.89419"
       id="path15828" />
    <path
       d="m -460.31969,795.53639 c 0.021,3.11 2.612,5.48 5.823,5.3 v 0 c 3.217,-0.18 5.805,-2.81 5.784,-5.91 v 0 c -0.02,-3.01 -2.448,-5.32 -5.741,-5.22 v 0 c -3.293,0.11 -5.886,2.73 -5.866,5.83 z"
       style="fill:#ffffff;fill-opacity:1;stroke-width:5.89419"
       id="path15830" />
    <path
       d="m -459.81969,825.51639 c 0.019,2.84 2.387,5 5.321,4.84 h 0.001 c 2.939,-0.16 5.304,-2.57 5.285,-5.4 v 0 c -0.019,-2.75 -2.237,-4.86 -5.246,-4.77 h -0.001 c -3.008,0.1 -5.378,2.5 -5.36,5.33 z"
       style="fill:#ffffff;fill-opacity:1;stroke-width:5.89419"
       id="path15832" />
    <path
       d="m -459.31869,855.49639 c 0.017,2.56 2.161,4.53 4.819,4.38 v 0 c 2.663,-0.14 4.804,-2.33 4.787,-4.89 v 0 c -0.017,-2.49 -2.026,-4.4 -4.751,-4.32 h -0.001 c -2.725,0.09 -4.871,2.26 -4.854,4.83 z"
       style="fill:#ffffff;fill-opacity:1;stroke-width:5.89419"
       id="path15834" />
    <path
       d="m -458.81869,885.47639 c 0.015,2.29 1.936,4.05 4.317,3.92 h 10e-4 c 2.385,-0.13 4.303,-2.08 4.288,-4.38 v 0 c -0.015,-2.23 -1.815,-3.94 -4.257,-3.87 v 0 c -2.442,0.08 -4.364,2.02 -4.349,4.33 z"
       style="fill:#ffffff;fill-opacity:1;stroke-width:5.89419"
       id="path15836" />
    <path
       d="m -458.31869,915.44639 c 0.013,2.03 1.711,3.59 3.815,3.47 h 0.001 c 2.108,-0.11 3.803,-1.84 3.79,-3.87 v 0 c -0.014,-1.97 -1.605,-3.48 -3.762,-3.42 h -10e-4 c -2.157,0.07 -3.856,1.79 -3.843,3.82 z"
       style="fill:#ffffff;fill-opacity:1;stroke-width:5.89419"
       id="path15838" />
    <path
       d="m -457.81869,945.42639 c 0.012,1.76 1.486,3.11 3.314,3.01 v 0 c 1.831,-0.1 3.303,-1.6 3.292,-3.36 v 0 c -0.012,-1.71 -1.394,-3.03 -3.268,-2.97 v 0 c -1.874,0.06 -3.35,1.55 -3.338,3.32 z"
       style="fill:#ffffff;fill-opacity:1;stroke-width:5.89419"
       id="path15840" />
    <path
       style="fill:#ffffff;fill-opacity:1;stroke-width:0.81219"
       d="m -457.03835,1005.3903 c 0.009,1.348 1.13524,2.3787 2.53083,2.3001 1.39835,-0.075 2.523,-1.2199 2.51421,-2.5688 -0.009,-1.3063 -1.06422,-2.3094 -2.49539,-2.2649 -1.43117,0.045 -2.55842,1.1848 -2.54965,2.5336 z"
       id="path25637" />
    <path
       style="fill:#ffffff;fill-opacity:1;stroke-width:0.730971"
       d="m -456.7861,1035.3788 c 0.008,1.2132 1.02172,2.1408 2.27775,2.0701 1.25851,-0.068 2.2707,-1.098 2.26279,-2.312 -0.008,-1.1756 -0.9578,-2.0784 -2.24585,-2.0384 -1.28806,0.04 -2.30258,1.0663 -2.29469,2.2803 z"
       id="path25639" />
    <path
       style="fill:#ffffff;fill-opacity:1;stroke-width:0.657874"
       d="m -456.55907,1065.3684 c 0.007,1.0919 0.91955,1.9267 2.04997,1.8631 1.13266,-0.061 2.04363,-0.9882 2.03651,-2.0808 -0.007,-1.058 -0.86202,-1.8706 -2.02126,-1.8346 -1.15926,0.036 -2.07232,0.9597 -2.06522,2.0523 z"
       id="path25641" />
    <path
       style="fill:#ffffff;fill-opacity:1;stroke-width:0.592087"
       d="m -456.35475,1095.3591 c 0.006,0.9827 0.8276,1.734 1.84498,1.6767 1.01939,-0.055 1.83926,-0.8893 1.83286,-1.8727 -0.006,-0.9522 -0.77582,-1.6835 -1.81914,-1.6511 -1.04333,0.032 -1.86509,0.8637 -1.8587,1.8471 z"
       id="path25643" />
    <path
       style="fill:#ffffff;fill-opacity:1;stroke-width:0.532878"
       d="m -456.17086,1125.3507 c 0.005,0.8844 0.74484,1.5606 1.66048,1.509 0.91746,-0.05 1.65534,-0.8004 1.64958,-1.6854 -0.005,-0.857 -0.69824,-1.5152 -1.63723,-1.486 -0.93899,0.029 -1.67858,0.7773 -1.67283,1.6624 z"
       id="path25645" />
    <path
       style="fill:#ffffff;fill-opacity:1;stroke-width:0.47959"
       d="m -456.00536,1155.3431 c 0.005,0.796 0.67036,1.4046 1.49444,1.3581 0.82571,-0.045 1.4898,-0.7203 1.48462,-1.5168 -0.005,-0.7713 -0.62842,-1.3637 -1.47351,-1.3374 -0.84509,0.026 -1.51072,0.6995 -1.50555,1.4961 z"
       id="path25647" />
    <path
       style="fill:#ffffff;fill-opacity:1;stroke-width:0.431631"
       d="m -455.85641,1185.3363 c 0.005,0.7164 0.60333,1.2641 1.345,1.2223 0.74314,-0.041 1.34082,-0.6483 1.33616,-1.3651 -0.005,-0.6942 -0.56558,-1.2274 -1.32616,-1.2037 -0.76058,0.023 -1.35965,0.6295 -1.355,1.3465 z"
       id="path25809" />
    <path
       style="fill:#ffffff;fill-opacity:1;stroke-width:0.388468"
       d="m -455.72235,1215.3302 c 0.005,0.6447 0.543,1.1377 1.2105,1.1 0.66882,-0.037 1.20674,-0.5834 1.20254,-1.2286 -0.005,-0.6247 -0.50902,-1.1046 -1.19354,-1.0833 -0.68452,0.021 -1.22369,0.5666 -1.2195,1.2119 z"
       id="path25811" />
  </g>
  <g
     id="circles"
     transform="rotate(27,1078.5808,691.63396)"
     mask="url(#mask903)">
    <use
       x="0"
       y="0"
       xlink:href="#g25853"
       id="use26725"
       transform="translate(140)" />
    <use
       x="0"
       y="0"
       xlink:href="#g25853"
       transform="translate(171.12137)"
       id="use26727" />
    <use
       x="0"
       y="0"
       xlink:href="#g25853"
       transform="translate(202.24274)"
       id="use26729" />
    <use
       x="0"
       y="0"
       xlink:href="#g25853"
       transform="translate(233.36411)"
       id="use26731" />
    <use
       x="0"
       y="0"
       xlink:href="#g25853"
       transform="translate(264.48548)"
       id="use26733" />
    <use
       x="0"
       y="0"
       xlink:href="#g25853"
       transform="translate(295.60685)"
       id="use26735" />
    <use
       x="0"
       y="0"
       xlink:href="#g25853"
       transform="translate(326.72822)"
       id="use26737" />
    <use
       x="0"
       y="0"
       xlink:href="#g25853"
       transform="translate(357.84959)"
       id="use26739" />
    <use
       x="0"
       y="0"
       xlink:href="#g25853"
       transform="translate(388.97096)"
       id="use26741" />
    <use
       x="0"
       y="0"
       xlink:href="#g25853"
       transform="translate(420.09234)"
       id="use26743" />
    <use
       x="0"
       y="0"
       xlink:href="#g25853"
       transform="translate(451.21371)"
       id="use26745" />
    <use
       x="0"
       y="0"
       xlink:href="#g25853"
       transform="translate(482.33508)"
       id="use26747" />
    <use
       x="0"
       y="0"
       xlink:href="#g25853"
       transform="translate(513.45645)"
       id="use26749" />
    <use
       x="0"
       y="0"
       xlink:href="#g25853"
       transform="translate(544.57782)"
       id="use26751" />
    <use
       x="0"
       y="0"
       xlink:href="#g25853"
       transform="translate(575.69919)"
       id="use26753" />
    <use
       x="0"
       y="0"
       xlink:href="#g25853"
       transform="translate(606.82056)"
       id="use26755" />
    <use
       x="0"
       y="0"
       xlink:href="#g25853"
       transform="translate(637.94193)"
       id="use26757" />
    <use
       x="0"
       y="0"
       xlink:href="#g25853"
       transform="translate(669.0633)"
       id="use26759" />
    <use
       x="0"
       y="0"
       xlink:href="#g25853"
       transform="translate(700.18467)"
       id="use26761" />
    <use
       x="0"
       y="0"
       xlink:href="#g25853"
       transform="translate(731.30604)"
       id="use26763" />
    <use
       x="0"
       y="0"
       xlink:href="#g25853"
       transform="translate(762.42741)"
       id="use26765" />
    <use
       x="0"
       y="0"
       xlink:href="#g25853"
       transform="translate(793.54878)"
       id="use26767" />
    <use
       x="0"
       y="0"
       xlink:href="#g25853"
       transform="translate(824.67015)"
       id="use26769" />
    <use
       x="0"
       y="0"
       xlink:href="#g25853"
       transform="translate(855.79152)"
       id="use26771" />
    <use
       x="0"
       y="0"
       xlink:href="#g25853"
       transform="translate(886.91289)"
       id="use26773" />
    <use
       x="0"
       y="0"
       xlink:href="#g25853"
       transform="translate(918.03426)"
       id="use26775" />
    <use
       x="0"
       y="0"
       xlink:href="#g25853"
       transform="translate(949.15563)"
       id="use26777" />
    <use
       x="0"
       y="0"
       xlink:href="#g25853"
       transform="translate(980.27701)"
       id="use26779" />
    <use
       x="0"
       y="0"
       xlink:href="#g25853"
       transform="translate(1011.3984)"
       id="use26781" />
    <use
       x="0"
       y="0"
       xlink:href="#g25853"
       transform="translate(1042.5198)"
       id="use26783" />
    <use
       x="0"
       y="0"
       xlink:href="#g25853"
       transform="translate(1073.6411)"
       id="use26785" />
    <use
       x="0"
       y="0"
       xlink:href="#g25853"
       transform="translate(1104.7625)"
       id="use26787" />
    <use
       x="0"
       y="0"
       xlink:href="#g25853"
       transform="translate(1135.8839)"
       id="use26789" />
    <use
       x="0"
       y="0"
       xlink:href="#g25853"
       transform="translate(1167.0052)"
       id="use26791" />
    <use
       x="0"
       y="0"
       xlink:href="#g25853"
       transform="translate(1198.1266)"
       id="use26793" />
    <use
       x="0"
       y="0"
       xlink:href="#g25853"
       transform="translate(1229.248)"
       id="use26795" />
    <use
       x="0"
       y="0"
       xlink:href="#g25853"
       transform="translate(1260.3693)"
       id="use26797" />
    <use
       x="0"
       y="0"
       xlink:href="#g25853"
       transform="translate(1291.4907)"
       id="use26799" />
    <use
       x="0"
       y="0"
       xlink:href="#g25853"
       transform="translate(1322.6121)"
       id="use26801" />
    <use
       x="0"
       y="0"
       xlink:href="#g25853"
       transform="translate(1353.7335)"
       id="use26803" />
    <use
       x="0"
       y="0"
       xlink:href="#g25853"
       transform="translate(1384.8548)"
       id="use26805" />
    <use
       x="0"
       y="0"
       xlink:href="#g25853"
       transform="translate(1415.9762)"
       id="use26807" />
    <use
       x="0"
       y="0"
       xlink:href="#g25853"
       transform="translate(1447.0976)"
       id="use26809" />
    <use
       x="0"
       y="0"
       xlink:href="#g25853"
       transform="translate(1478.2189)"
       id="use26811" />
    <use
       x="0"
       y="0"
       xlink:href="#g25853"
       transform="translate(1509.3403)"
       id="use26813" />
    <use
       x="0"
       y="0"
       xlink:href="#g25853"
       transform="translate(1540.4617)"
       id="use26815" />
    <use
       x="0"
       y="0"
       xlink:href="#g25853"
       transform="translate(1571.583)"
       id="use26817" />
    <use
       x="0"
       y="0"
       xlink:href="#g25853"
       transform="translate(1602.7044)"
       id="use26819" />
    <use
       x="0"
       y="0"
       xlink:href="#g25853"
       transform="translate(1633.8258)"
       id="use26821" />
    <use
       x="0"
       y="0"
       xlink:href="#g25853"
       transform="translate(1664.9472)"
       id="use26823" />
    <use
       x="0"
       y="0"
       xlink:href="#g25853"
       transform="translate(1696.0685)"
       id="use26825" />
    <use
       x="0"
       y="0"
       xlink:href="#g25853"
       transform="translate(1727.1899)"
       id="use26827" />
    <use
       x="0"
       y="0"
       xlink:href="#g25853"
       transform="translate(1758.3113)"
       id="use26829" />
    <use
       x="0"
       y="0"
       xlink:href="#g25853"
       transform="translate(1789.4326)"
       id="use26831" />
    <use
       x="0"
       y="0"
       xlink:href="#g25853"
       transform="translate(1820.554)"
       id="use26833" />
    <use
       x="0"
       y="0"
       xlink:href="#g25853"
       transform="translate(1851.6754)"
       id="use26835" />
    <use
       x="0"
       y="0"
       xlink:href="#g25853"
       transform="translate(1882.7968)"
       id="use26837" />
    <use
       x="0"
       y="0"
       xlink:href="#g25853"
       transform="translate(1913.9181)"
       id="use26839" />
    <use
       x="0"
       y="0"
       xlink:href="#g25853"
       transform="translate(1945.0395)"
       id="use26841" />
    <use
       x="0"
       y="0"
       xlink:href="#g25853"
       transform="translate(1976.1609)"
       id="use26843" />
  </g>
</svg>
