<?xml version="1.0" encoding="UTF-8" standalone="no"?>
<svg id="svg198" version="1.1" fill="none" viewBox="0 0 1199.9999 999.99992" height="1000" width="1200"
   xmlns:xlink="http://www.w3.org/1999/xlink" xmlns="http://www.w3.org/2000/svg" xmlns:svg="http://www.w3.org/2000/svg">
   <defs id="defs196">
      <g id="diamond" class="ldl-scale" style="transform:scale(0.5)">
         <path
            d="M90 37.8v-.3-.3-.3c0-.1-.1-.2-.1-.3v-.1l-.1-.1c0-.1 0-.1-.1-.2L76.1 15.9c-.4-.6-1.1-1-1.8-1H25.7c-.7 0-1.4.4-1.8 1L10.3 36.3s0 .1-.1.2l-.1.1v.1c0 .1-.1.2-.1.3V37.9c0 .1.1.2.1.3 0 .1.1.2.1.3v.1c0 .1.1.1.1.2s.1.1.1.2l37.8 45.5.3.3h.2c.1 0 .1.1.2.1h.1c.1 0 .2.1.2.1h.2c.2 0 .3.1.5.1s.3 0 .5-.1h.1s.1 0 .1-.1c.1 0 .2-.1.2-.1h.1c.1 0 .1-.1.2-.1h.2l.3-.3 37.8-45.5c0-.1.1-.1.1-.2s.1-.1.1-.2v-.1c0-.1.1-.2.1-.3.2 0 .3-.1.3-.3zM73.1 19.2l10.7 16.1H66.9l-4.3-16.1h10.5zm-31.2 0h16.2l4.3 16.1H37.6l2.2-8.3 2.1-7.8zm7 53.7L37.8 39.7h24.4l-.8 2.3L50 76.1l-1.1-3.2zm-22-53.7h10.5l-2.2 8.3-2.1 7.8H16.2l10.7-16.1zM16.8 39.7h16.4l11.1 33-27.5-33zm39 32.9l11.1-33h16.4l-27.5 33z"
            style="stroke:#fff;stroke-width:2"></path>
      </g>
      <circle style="fill:white;fill-opacity:1;" r="15" id="theShape" />

      <linearGradient id="linearGradient635">
         <stop style="stop-color:#ffffff;stop-opacity:1;" offset="0" id="stop631" />
         <stop style="stop-color:#ffffff;stop-opacity:0;" offset="1" id="stop633" />
      </linearGradient>
      <mask maskUnits="userSpaceOnUse" id="mask903">
         <rect
            style="fill:url(#linearGradient907);fill-opacity:1;stroke:#66c2a5;stroke-width:2;stroke-linecap:round;stroke-linejoin:round;paint-order:stroke fill markers;stop-color:#000000"
            id="rect905" width="1196.298" height="997.56439" x="-427.65677" y="418.17859" transform="rotate(-27)" />
      </mask>
      <linearGradient xlink:href="#linearGradient635" id="linearGradient907" gradientUnits="userSpaceOnUse" x1="639.0647" y1="15.586944"
         x2="631.27124" y2="985.87421" gradientTransform="translate(-431.55352,414.28185)" />
   </defs>
   <g id="g25853" transform="translate(-130)">
      <use xlink:href="#theShape" transform="translate(0 0) scale(1)" />
      <use xlink:href="#theShape" transform="translate(0 20) scale(.98)" />
      <use xlink:href="#theShape" transform="translate(0 40) scale(.96)" />
      <use xlink:href="#theShape" transform="translate(0 60) scale(.94)" />
      <use xlink:href="#theShape" transform="translate(0 80) scale(.94)" />
      <use xlink:href="#theShape" transform="translate(0 100) scale(.92)" />
      <use xlink:href="#theShape" transform="translate(0 120) scale(.90)" />
      <use xlink:href="#theShape" transform="translate(0 140) scale(.88)" />
      <use xlink:href="#theShape" transform="translate(0 160) scale(.86)" />
      <use xlink:href="#theShape" transform="translate(0 180) scale(.84)" />
      <use xlink:href="#theShape" transform="translate(0 200) scale(.82)" />
      <use xlink:href="#theShape" transform="translate(0 220) scale(.80)" />
      <use xlink:href="#theShape" transform="translate(0 240) scale(.78)" />
      <use xlink:href="#theShape" transform="translate(0 260) scale(.76)" />
      <use xlink:href="#theShape" transform="translate(0 280) scale(.74)" />
      <use xlink:href="#theShape" transform="translate(0 300) scale(.72)" />
      <use xlink:href="#theShape" transform="translate(0 320) scale(.70)" />
      <use xlink:href="#theShape" transform="translate(0 340) scale(.68)" />
      <use xlink:href="#theShape" transform="translate(0 360) scale(.66)" />
      <use xlink:href="#theShape" transform="translate(0 380) scale(.64)" />

      <use xlink:href="#theShape" transform="translate(0 400) scale(.62)" />
      <use xlink:href="#theShape" transform="translate(0 420) scale(.60)" />
      <use xlink:href="#theShape" transform="translate(0 440) scale(.58)" />
      <use xlink:href="#theShape" transform="translate(0 460) scale(.56)" />
      <use xlink:href="#theShape" transform="translate(0 480) scale(.54)" />

      <use xlink:href="#theShape" transform="translate(0 500) scale(.52)" />
      <use xlink:href="#theShape" transform="translate(0 520) scale(.50)" />
      <use xlink:href="#theShape" transform="translate(0 540) scale(.48)" />
      <use xlink:href="#theShape" transform="translate(0 560) scale(.46)" />
      <use xlink:href="#theShape" transform="translate(0 580) scale(.44)" />

      <use xlink:href="#theShape" transform="translate(0 600) scale(.42)" />
      <use xlink:href="#theShape" transform="translate(0 620) scale(.40)" />
      <use xlink:href="#theShape" transform="translate(0 640) scale(.38)" />
      <use xlink:href="#theShape" transform="translate(0 660) scale(.36)" />
      <use xlink:href="#theShape" transform="translate(0 680) scale(.34)" />

      <use xlink:href="#theShape" transform="translate(0 700) scale(.32)" />
      <use xlink:href="#theShape" transform="translate(0 720) scale(.30)" />
      <use xlink:href="#theShape" transform="translate(0 740) scale(.28)" />
      <use xlink:href="#theShape" transform="translate(0 760) scale(.26)" />
      <use xlink:href="#theShape" transform="translate(0 780) scale(.24)" />

      <use xlink:href="#theShape" transform="translate(0 800) scale(.22)" />
      <use xlink:href="#theShape" transform="translate(0 820) scale(.20)" />
      <use xlink:href="#theShape" transform="translate(0 840) scale(.18)" />
      <use xlink:href="#theShape" transform="translate(0 860) scale(.16)" />
      <use xlink:href="#theShape" transform="translate(0 880) scale(.14)" />

      <use xlink:href="#theShape" transform="translate(0 900) scale(.12)" />
      <use xlink:href="#theShape" transform="translate(0 920) scale(.10)" />
      <use xlink:href="#theShape" transform="translate(0 940) scale(.08)" />
      <use xlink:href="#theShape" transform="translate(0 960) scale(.06)" />
      <use xlink:href="#theShape" transform="translate(0 980) scale(.04)" />

      <use xlink:href="#theShape" transform="translate(0 1000) scale(.02)" />


   </g>
   <!-- <g
     id="circles"> -->
   <g id="circles" transform="rotate(27,1000,0)">
      <use xlink:href="#g25853" transform="translate(140.00000)" />
      <use xlink:href="#g25853" transform="translate(171.12137)" />
      <use xlink:href="#g25853" transform="translate(202.24274)" />
      <use xlink:href="#g25853" transform="translate(233.36411)" />
      <use xlink:href="#g25853" transform="translate(264.48548)" />
      <use xlink:href="#g25853" transform="translate(295.60685)" />
      <use xlink:href="#g25853" transform="translate(326.72822)" />
      <use xlink:href="#g25853" transform="translate(357.84959)" />
      <use xlink:href="#g25853" transform="translate(388.97096)" />
      <use xlink:href="#g25853" transform="translate(420.09234)" />
      <use xlink:href="#g25853" transform="translate(451.21371)" />
      <use xlink:href="#g25853" transform="translate(482.33508)" />
      <use xlink:href="#g25853" transform="translate(513.45645)" />
      <use xlink:href="#g25853" transform="translate(544.57782)" />
      <use xlink:href="#g25853" transform="translate(575.69919)" />
      <use xlink:href="#g25853" transform="translate(606.82056)" />
      <use xlink:href="#g25853" transform="translate(637.94193)" />
      <use xlink:href="#g25853" transform="translate(669.06330)" />
      <use xlink:href="#g25853" transform="translate(700.18467)" />
      <use xlink:href="#g25853" transform="translate(731.30604)" />
      <use xlink:href="#g25853" transform="translate(762.42741)" />
      <use xlink:href="#g25853" transform="translate(793.54878)" />
      <use xlink:href="#g25853" transform="translate(824.67015)" />
      <use xlink:href="#g25853" transform="translate(855.79152)" />
      <use xlink:href="#g25853" transform="translate(886.91289)" />
      <use xlink:href="#g25853" transform="translate(918.03426)" />
      <use xlink:href="#g25853" transform="translate(949.15563)" />
      <use xlink:href="#g25853" transform="translate(980.27701)" />
      <use xlink:href="#g25853" transform="translate(1011.3984)" />
      <use xlink:href="#g25853" transform="translate(1042.5198)" />
      <use xlink:href="#g25853" transform="translate(1073.6411)" />
      <use xlink:href="#g25853" transform="translate(1104.7625)" />
      <use xlink:href="#g25853" transform="translate(1135.8839)" />
      <use xlink:href="#g25853" transform="translate(1167.0052)" />
      <use xlink:href="#g25853" transform="translate(1198.1266)" />
      <use xlink:href="#g25853" transform="translate(1229.2480)" />
      <use xlink:href="#g25853" transform="translate(1260.3693)" />
      <use xlink:href="#g25853" transform="translate(1291.4907)" />
      <use xlink:href="#g25853" transform="translate(1322.6121)" />
      <use xlink:href="#g25853" transform="translate(1353.7335)" />
      <use xlink:href="#g25853" transform="translate(1384.8548)" />
      <use xlink:href="#g25853" transform="translate(1415.9762)" />
      <use xlink:href="#g25853" transform="translate(1447.0976)" />
      <use xlink:href="#g25853" transform="translate(1478.2189)" />
      <use xlink:href="#g25853" transform="translate(1509.3403)" />
      <use xlink:href="#g25853" transform="translate(1540.4617)" />
      <use xlink:href="#g25853" transform="translate(1571.5830)" />
      <use xlink:href="#g25853" transform="translate(1602.7044)" />
      <use xlink:href="#g25853" transform="translate(1633.8258)" />
      <use xlink:href="#g25853" transform="translate(1664.9472)" />
      <use xlink:href="#g25853" transform="translate(1696.0685)" />
      <use xlink:href="#g25853" transform="translate(1727.1899)" />
      <use xlink:href="#g25853" transform="translate(1758.3113)" />
      <use xlink:href="#g25853" transform="translate(1789.4326)" />
      <use xlink:href="#g25853" transform="translate(1820.5540)" />
      <use xlink:href="#g25853" transform="translate(1851.6754)" />
      <use xlink:href="#g25853" transform="translate(1882.7968)" />
      <use xlink:href="#g25853" transform="translate(1913.9181)" />
      <use xlink:href="#g25853" transform="translate(1945.0395)" />
      <use xlink:href="#g25853" transform="translate(1976.1609)" />
   </g>
</svg>